<?xml version="1.0" encoding="UTF-8" standalone="no"?>
<svg
   xmlns:svg="http://www.w3.org/2000/svg"
   xmlns="http://www.w3.org/2000/svg"
   width="34.523472"
   height="34.523472"
   version="1.1">
  <g
     transform="translate(-411.98111,-73.853621)">
    <g
       transform="translate(-354.78551,943.98509)">
      <path
         transform="translate(204.325,0)"
         d="m 184.98398,91.115356 c 0,9.533394 -7.72834,17.261734 -17.26174,17.261734 -9.53339,0 -17.26173,-7.72834 -17.26173,-17.261734 0,-9.533393 7.72834,-17.261735 17.26173,-17.261735 9.5334,0 17.26174,7.728342 17.26174,17.261735 z"
         style="fill:#b3b3b3;fill-opacity:1;stroke:none"/>
      <path
         d="m 370.38708,100.57825 0,-7.851565 -7.79296,0 0,-3.28125 7.79296,0 0,-7.792969 3.32032,0 0,7.792969 7.79297,0 0,3.28125 -7.79297,0 0,7.851565 z"
         style="fill:#ececec;fill-opacity:1;stroke:none" />
    </g>
    <path
       transform="translate(261.5206,0)"
       d="m 184.98398,91.115356 a 17.261736,17.261736 0 1 1 -34.52347,0 17.261736,17.261736 0 1 1 34.52347,0 z"
       style="fill:#b3b3b3;fill-opacity:1;stroke:none"/>
    <path
       style="fill:#ececec;fill-opacity:1;stroke:none"
       d="m 424.74771,92.187333 0,-2.592413 8.58761,0 0,2.592413 z" />
    <g
       transform="matrix(0.52759895,0,0,1.0370592,106.7727,24.074047)"
       style="fill:#ececec;fill-opacity:1;stroke:none">
      <path
         d="m 590.12611,65.771183 0,-2.320233 13.41039,-5.662474 0,2.472153 -10.6344,4.364248 10.6344,4.405681 0,2.472154 z"/>
    </g>
    <g
       transform="matrix(-0.52759895,0,0,1.0370592,110.7727,24.074047)"
       style="fill:#ececec;fill-opacity:1;stroke:none">
      <path
         d="m -624.69872,65.771183 0,-2.320233 13.41039,-5.662474 0,2.472153 -10.6344,4.364248 10.6344,4.405681 0,2.472154 z"/>
    </g>
  </g>
</svg>
